<?xml version="1.0" encoding="UTF-8"?>
<svg xmlns="http://www.w3.org/2000/svg" xmlns:xlink="http://www.w3.org/1999/xlink" id="Layer_2" width="250" height="175.62" viewBox="0 0 250 175.62">
  <defs>
    <style>.cls-1{fill:none;}.cls-2{fill:url(#Degradado_sin_nombre_4);}.cls-3{clip-path:url(#clippath);}</style>
    <clipPath id="clippath">
      <path class="cls-1" d="M226.02,85.04c0,6.62,5.37,11.99,11.99,11.99s11.99-5.37,11.99-11.99-5.37-11.99-11.99-11.99-11.99,5.37-11.99,11.99M226.02,36.68c0,6.62,5.37,11.99,11.99,11.99s11.99-5.37,11.99-11.99-5.37-11.99-11.99-11.99-11.99,5.37-11.99,11.99M77.12,4.16L28.27,52.22c-1.66,1.66-2.75,3.69-3.26,5.82-1.07,4.09-.01,8.62,3.19,11.83l48.85,48.06c4.8,4.8,12.58,4.8,17.38,0,4.8-4.8,4.8-12.58,0-17.38l-40.12-39.47,40.19-39.54c4.8-4.8,4.8-12.58,0-17.38-2.4-2.4-5.54-3.6-8.69-3.6s-6.29,1.2-8.69,3.6M0,12.79v96.71c0,6.79,5.5,12.29,12.29,12.29s12.29-5.5,12.29-12.29V12.79C24.57,6.01,19.07.5,12.29.5S0,6.01,0,12.79M116.49,120.5c1.72.91,3.68,1.43,5.76,1.43h.03-.03c-2.08,0-4.04-.52-5.76-1.43M134.69,73.31s37.59.03,37.62.03c6.21.47,11.11,5.65,11.11,11.99s-5.38,12.02-12.02,12.02h-36.71v-24.04ZM134.69,24.62l37.57.04c6.26.41,11.22,5.63,11.22,11.99s-5.38,12.03-12.02,12.03h-36.76v-24.06ZM122.3,0c-6.47,0-11.76,4.99-12.25,11.33,0,.04,0,.09,0,.13-.02.26-.03.53-.03.79,0,.03,0,.06,0,.08v97.36c0,2.53.76,4.88,2.07,6.84,2.21,3.31,5.99,5.5,10.27,5.5.45,0,49.67,0,49.99-.01.09,0,.17,0,.26,0,10.42-.34,19.75-5.04,26.21-12.32.66-.75,1.3-1.52,1.9-2.32,4.61-6.13,7.35-13.76,7.35-22.02s-2.73-15.89-7.35-22.02c-.59-.79-1.22-1.55-1.87-2.29,0,0,.02-.02.03-.03.66-.75,1.3-1.52,1.9-2.32,4.61-6.13,7.34-13.76,7.34-22.02s-2.73-15.89-7.34-22.02c-6.69-8.9-17.34-14.66-29.34-14.66h-49.12Z"></path>
    </clipPath>
    <linearGradient id="Degradado_sin_nombre_4" x1="-721.68" y1="1303.93" x2="-719.73" y2="1303.93" gradientTransform="translate(81821.1 -45093.79) rotate(-90) scale(62.65 -62.65)" gradientUnits="userSpaceOnUse">
      <stop offset="0" stop-color="#09fe8e"></stop>
      <stop offset=".17" stop-color="#09feab"></stop>
      <stop offset=".41" stop-color="#09fecf"></stop>
      <stop offset=".63" stop-color="#09fee8"></stop>
      <stop offset=".84" stop-color="#09fef8"></stop>
      <stop offset="1" stop-color="#09fefe"></stop>
      <stop offset="1" stop-color="#09fefe"></stop>
    </linearGradient>
  </defs>
  <g id="Capa_1">
    <g class="cls-3">
      <rect class="cls-2" x="0" width="250" height="122.72"></rect>
    </g>
    <polygon points="9.6 156.68 5.5 160.56 5.5 166.77 0 166.77 0 134.09 5.5 134.09 5.5 153.82 16.91 143.25 23.52 143.25 13.7 153.12 24.44 166.77 17.75 166.77 9.6 156.68"></polygon>
    <path d="M52.88,156.77h-18.45c.32,1.73,1.17,3.1,2.53,4.12,1.37,1.01,3.06,1.52,5.09,1.52,2.58,0,4.71-.85,6.39-2.56l2.95,3.39c-1.06,1.26-2.39,2.22-4.01,2.86-1.61.65-3.43.97-5.46.97-2.58,0-4.86-.51-6.83-1.54-1.97-1.03-3.49-2.46-4.56-4.29-1.07-1.83-1.61-3.91-1.61-6.23,0-3.09.95-5.77,2.85-8.03.35-.41.73-.8,1.15-1.14,2.29-1.9,5-2.85,8.16-2.85,2.29,0,4.34.51,6.14,1.52,1.81,1.02,3.22,2.44,4.23,4.27,1.01,1.83,1.52,3.96,1.52,6.36,0,.38-.03.93-.09,1.63M36.61,148.95c-1.22,1.04-1.96,2.43-2.22,4.16h13.34c-.24-1.7-.95-3.08-2.16-4.14-1.2-1.06-2.7-1.59-4.49-1.59s-3.25.52-4.47,1.56"></path>
    <path d="M83.65,143.25l-11.01,25.41c-1.03,2.55-2.28,4.35-3.74,5.4-1.47,1.04-3.25,1.56-5.33,1.56-1.17,0-2.33-.19-3.48-.57-1.15-.38-2.09-.91-2.82-1.59l2.2-4.05c.53.5,1.15.89,1.87,1.19.72.29,1.45.44,2.18.44.97,0,1.77-.25,2.4-.75.63-.5,1.21-1.34,1.74-2.51l.4-.93-10.26-23.61h5.73l7.4,17.4,7.44-17.4h5.28Z"></path>
    <path d="M110.08,144.48c1.81,1,3.22,2.41,4.25,4.23,1.03,1.82,1.54,3.92,1.54,6.3s-.51,4.48-1.54,6.32c-1.03,1.83-2.44,3.25-4.25,4.25-1.81,1-3.85,1.5-6.14,1.5-1.61,0-3.09-.28-4.43-.84-1.34-.56-2.46-1.4-3.37-2.51v3.04h-5.24v-32.68h5.51v12.02c.94-1.03,2.05-1.81,3.32-2.34,1.28-.53,2.68-.79,4.21-.79,2.29,0,4.34.5,6.14,1.5M108.32,160.34c1.31-1.35,1.96-3.13,1.96-5.33s-.65-3.98-1.96-5.33c-1.31-1.35-2.97-2.03-5-2.03-1.32,0-2.51.3-3.57.9-1.06.6-1.89,1.46-2.51,2.58-.62,1.12-.92,2.41-.92,3.88s.31,2.76.92,3.87c.62,1.12,1.46,1.97,2.51,2.58,1.06.6,2.25.9,3.57.9,2.03,0,3.69-.68,5-2.03"></path>
    <path d="M146.95,156.77h-18.45c.32,1.73,1.17,3.1,2.53,4.12,1.37,1.01,3.06,1.52,5.09,1.52,2.58,0,4.71-.85,6.39-2.56l2.95,3.39c-1.06,1.26-2.39,2.22-4.01,2.86-1.61.65-3.43.97-5.46.97-2.58,0-4.86-.51-6.83-1.54-1.97-1.03-3.49-2.46-4.56-4.29-1.07-1.83-1.61-3.91-1.61-6.23,0-3.1.95-5.78,2.86-8.04.35-.41.74-.8,1.16-1.15,2.28-1.89,4.99-2.84,8.14-2.84,2.29,0,4.34.51,6.14,1.52,1.81,1.02,3.22,2.44,4.23,4.27,1.01,1.83,1.52,3.96,1.52,6.36,0,.38-.03.93-.09,1.63M130.68,148.95c-1.22,1.04-1.96,2.43-2.22,4.16h13.34c-.24-1.7-.95-3.08-2.16-4.14-1.2-1.06-2.7-1.59-4.49-1.59s-3.25.52-4.47,1.56"></path>
    <path d="M155.35,166.04c-.71-.69-1.06-1.56-1.06-2.62s.34-1.97,1.04-2.64c.69-.67,1.55-1.01,2.58-1.01s1.89.34,2.58,1.01c.69.68,1.04,1.56,1.04,2.64s-.35,1.93-1.06,2.62-1.56,1.03-2.56,1.03-1.85-.34-2.55-1.03"></path>
    <path d="M188.08,145.47c1.83,1.66,2.75,4.16,2.75,7.51v13.78h-5.2v-2.86c-.67,1.03-1.64,1.81-2.88,2.35-1.25.54-2.75.82-4.52.82s-3.3-.3-4.62-.9c-1.32-.6-2.34-1.44-3.06-2.51-.72-1.07-1.08-2.28-1.08-3.63,0-2.12.78-3.81,2.35-5.09,1.57-1.28,4.04-1.91,7.42-1.91h6.08v-.35c0-1.64-.49-2.91-1.47-3.79-.98-.88-2.44-1.32-4.38-1.32-1.32,0-2.62.21-3.9.62-1.28.41-2.36.99-3.24,1.72l-2.16-4.01c1.23-.94,2.72-1.66,4.45-2.16,1.73-.5,3.57-.75,5.5-.75,3.47,0,6.11.83,7.95,2.49M183.06,162.12c1.07-.63,1.83-1.53,2.27-2.71v-2.73h-5.68c-3.17,0-4.75,1.04-4.75,3.13,0,1,.4,1.79,1.19,2.38.79.59,1.89.88,3.3.88s2.61-.32,3.68-.95"></path>
    <path d="M201.96,138.43c-.68-.63-1.01-1.42-1.01-2.36s.34-1.72,1.01-2.35c.68-.63,1.51-.95,2.51-.95s1.83.3,2.51.9c.68.6,1.04,1.51,1.01,2.42-.03.9-.36,1.67-.99,2.3-.66.66-1.51.99-2.53.99s-1.83-.32-2.51-.95M201.69,143.25h5.51v23.52h-5.51v-23.52Z"></path>
    <path d="M225.24,136.05c0,2.19-1.7,3.9-3.89,3.9s-3.86-1.71-3.86-3.88,1.68-3.88,3.89-3.88,3.87,1.67,3.87,3.85M224.6,136.05c0-1.84-1.36-3.25-3.23-3.25s-3.26,1.44-3.26,3.27,1.38,3.27,3.24,3.27,3.25-1.45,3.25-3.3M222.36,136.65l.82,1.25h-.8l-.72-1.12h-.83v1.12h-.8v-3.66h1.52c.97,0,1.54.5,1.54,1.27,0,.55-.26.94-.73,1.13M221.5,136.17c.52,0,.82-.24.82-.65s-.3-.64-.82-.64h-.69v1.29h.69Z"></path>
  </g>
</svg>
